# xmcd
#
# Track frame offsets: 
#        150
#        18207
#        36430
#        65520
#        85287
#        115722
#        140155
#        167545
#        188765
#        216670
#        236367
#        267625
#
# Disc length: 3815 seconds
#
# Revision: 0
# Processed by: cddbd v1.5.1PL0 Copyright (c) Steve Scherf et al.
# Submitted via: ExactAudioCopy v0.95a5
#
DISCID=ae0ee50c
DTITLE=Skip Roberts with Blues Wing - Hello There
DYEAR=1997
DGENRE=Blues
TTITLE0=Don't Stay Away To Long
TTITLE1=Hello There
TTITLE2=Gee Baby
TTITLE3=A-Train
TTITLE4=Wee Baby Blues
TTITLE5=Summertime
TTITLE6=Georgia On My Mind
TTITLE7=September In The Rain
TTITLE8=Never Let Me Go
TTITLE9=Now Is The Time To Love
TTITLE10=God Bless The Child
TTITLE11=Stormy Morning
EXTD=
EXTT0=
EXTT1=
EXTT2=
EXTT3=
EXTT4=
EXTT5=
EXTT6=
EXTT7=
EXTT8=
EXTT9=
EXTT10=
EXTT11=
PLAYORDER=
